HIERARCHY
ROOT Hips
{
  OFFSET 0 0.240689 0
  CHANNELS 6 Xposition Yposition Zposition Zrotation Xrotation Yrotation
  JOINT Bip01_Spine0
  {
    OFFSET 0 -24.7459 49.7988
    CHANNELS 6 Xposition Yposition Zposition Zrotation Xrotation Yrotation
    JOINT Bip01_Pelvis
    {
      OFFSET 0 0 0
      CHANNELS 6 Xposition Yposition Zposition Zrotation Xrotation Yrotation
      JOINT Bip01_Spine0_Tail
      {
        OFFSET -6.47486 -3.86022 0
        CHANNELS 6 Xposition Yposition Zposition Zrotation Xrotation Yrotation
        JOINT Bip01_Spine0_Tail1
        {
          OFFSET 10.3837 -0.00825882 0
          CHANNELS 6 Xposition Yposition Zposition Zrotation Xrotation Yrotation
          JOINT Bip01_Spine0_Tail2
          {
            OFFSET 10.3837 -0.00826263 0
            CHANNELS 6 Xposition Yposition Zposition Zrotation Xrotation Yrotation
            JOINT Bip01_Spine0_Tail3
            {
              OFFSET 10.3837 -0.00825882 0
              CHANNELS 6 Xposition Yposition Zposition Zrotation Xrotation Yrotation
              JOINT Bip01_Spine0_Tail4
              {
                OFFSET 10.3837 -0.00826263 0
                CHANNELS 6 Xposition Yposition Zposition Zrotation Xrotation Yrotation
                End Site
                {
                  OFFSET 0 0 0
                }
              }
            }
          }
        }
      }
      JOINT Bip01_R_Thigh
      {
        OFFSET 0 -1.52588e-005 -8.75617
        CHANNELS 6 Xposition Yposition Zposition Zrotation Xrotation Yrotation
        JOINT Bip01_R_Calf
        {
          OFFSET 19.7638 0 0
          CHANNELS 6 Xposition Yposition Zposition Zrotation Xrotation Yrotation
          JOINT Bip01_R_Foot
          {
            OFFSET 18.6534 0 0
            CHANNELS 6 Xposition Yposition Zposition Zrotation Xrotation Yrotation
            JOINT Bip01_R_Toe0
            {
              OFFSET 5.09145 13.9567 0
              CHANNELS 6 Xposition Yposition Zposition Zrotation Xrotation Yrotation
              JOINT Bip01_R_Toe01
              {
                OFFSET 4.28803 0 0
                CHANNELS 6 Xposition Yposition Zposition Zrotation Xrotation Yrotation
                JOINT Bip01_R_Toe02
                {
                  OFFSET 3.85801 0 0
                  CHANNELS 6 Xposition Yposition Zposition Zrotation Xrotation Yrotation
                  End Site
                  {
                    OFFSET 0 0 0
                  }
                }
              }
            }
          }
        }
      }
      JOINT Bip01_L_Thigh
      {
        OFFSET 0 1.52588e-005 8.75617
        CHANNELS 6 Xposition Yposition Zposition Zrotation Xrotation Yrotation
        JOINT Bip01_L_Calf
        {
          OFFSET 19.7638 0 0
          CHANNELS 6 Xposition Yposition Zposition Zrotation Xrotation Yrotation
          JOINT Bip01_L_Foot
          {
            OFFSET 18.6534 0 0
            CHANNELS 6 Xposition Yposition Zposition Zrotation Xrotation Yrotation
            JOINT Bip01_L_Toe0
            {
              OFFSET 5.09144 13.9567 0
              CHANNELS 6 Xposition Yposition Zposition Zrotation Xrotation Yrotation
              JOINT Bip01_L_Toe01
              {
                OFFSET 4.28802 0 0
                CHANNELS 6 Xposition Yposition Zposition Zrotation Xrotation Yrotation
                JOINT Bip01_L_Toe02
                {
                  OFFSET 3.85801 0 0
                  CHANNELS 6 Xposition Yposition Zposition Zrotation Xrotation Yrotation
                  End Site
                  {
                    OFFSET 0 0 0
                  }
                }
              }
            }
          }
        }
      }
      JOINT Bip01_Spine
      {
        OFFSET 9.14835 -0.00640869 -1.1e-005
        CHANNELS 6 Xposition Yposition Zposition Zrotation Xrotation Yrotation
        JOINT Bip01_Spine1
        {
          OFFSET 8.04366 -0.00638199 0
          CHANNELS 6 Xposition Yposition Zposition Zrotation Xrotation Yrotation
          JOINT Bip01_Spine2
          {
            OFFSET 8.04367 -0.00639343 0
            CHANNELS 6 Xposition Yposition Zposition Zrotation Xrotation Yrotation
            JOINT Bip01_Spine3
            {
              OFFSET 8.04304 -0.00831222 0
              CHANNELS 6 Xposition Yposition Zposition Zrotation Xrotation Yrotation
              JOINT Bip01_Neck
              {
                OFFSET 10.6685 1.06813 0
                CHANNELS 6 Xposition Yposition Zposition Zrotation Xrotation Yrotation
                JOINT Bip01_R_Clavicle
                {
                  OFFSET -3.21661 -4.89635 -9.04802
                  CHANNELS 6 Xposition Yposition Zposition Zrotation Xrotation Yrotation
                  JOINT Bip01_R_UpperArm
                  {
                    OFFSET 19.0492 0 0
                    CHANNELS 6 Xposition Yposition Zposition Zrotation Xrotation Yrotation
                    JOINT Bip01_R_Forearm
                    {
                      OFFSET 10.3706 0 0
                      CHANNELS 6 Xposition Yposition Zposition Zrotation Xrotation Yrotation
                      JOINT Bip01_R_Hand
                      {
                        OFFSET 22.8632 0 0
                        CHANNELS 6 Xposition Yposition Zposition Zrotation Xrotation Yrotation
                        JOINT Bip01_R_Finger0
                        {
                          OFFSET 6.48259 0.103651 0.504496
                          CHANNELS 6 Xposition Yposition Zposition Zrotation Xrotation Yrotation
                          JOINT Bip01_R_Finger01
                          {
                            OFFSET 3.66847 0 0
                            CHANNELS 6 Xposition Yposition Zposition Zrotation Xrotation Yrotation
                            End Site
                            {
                              OFFSET 0 0 0
                            }
                          }
                        }
                      }
                    }
                  }
                }
                JOINT Bip01_L_Clavicle
                {
                  OFFSET -3.21661 -4.89641 9.04797
                  CHANNELS 6 Xposition Yposition Zposition Zrotation Xrotation Yrotation
                  JOINT Bip01_L_UpperArm
                  {
                    OFFSET 19.0492 0 0
                    CHANNELS 6 Xposition Yposition Zposition Zrotation Xrotation Yrotation
                    JOINT Bip01_L_Forearm
                    {
                      OFFSET 10.3706 0 0
                      CHANNELS 6 Xposition Yposition Zposition Zrotation Xrotation Yrotation
                      JOINT Bip01_L_Hand
                      {
                        OFFSET 22.8631 0 0
                        CHANNELS 6 Xposition Yposition Zposition Zrotation Xrotation Yrotation
                        JOINT Bip01_L_Finger0
                        {
                          OFFSET 6.48257 0.103655 -0.504492
                          CHANNELS 6 Xposition Yposition Zposition Zrotation Xrotation Yrotation
                          JOINT Bip01_L_Finger01
                          {
                            OFFSET 3.66844 0 0
                            CHANNELS 6 Xposition Yposition Zposition Zrotation Xrotation Yrotation
                            End Site
                            {
                              OFFSET 0 0 0
                            }
                          }
                        }
                      }
                    }
                  }
                }
                JOINT Bip01_Neck1
                {
                  OFFSET 7.52459 -0.00656509 0
                  CHANNELS 6 Xposition Yposition Zposition Zrotation Xrotation Yrotation
                  JOINT Bip01_Neck2
                  {
                    OFFSET 8.4783 -0.00588226 0
                    CHANNELS 6 Xposition Yposition Zposition Zrotation Xrotation Yrotation
                    JOINT Bip01_Head
                    {
                      OFFSET 8.41606 0 0
                      CHANNELS 6 Xposition Yposition Zposition Zrotation Xrotation Yrotation
                      JOINT EyesBlue
                      {
                        OFFSET 0 0 0
                        CHANNELS 6 Xposition Yposition Zposition Zrotation Xrotation Yrotation
                        JOINT EyesBlue_2
                        {
                          OFFSET 0 -0.500007 0
                          CHANNELS 6 Xposition Yposition Zposition Zrotation Xrotation Yrotation
                          End Site
                          {
                            OFFSET 0 0 0
                          }
                        }
                      }
                      JOINT Bip01_Head2_Eyeleds
                      {
                        OFFSET 6.52751 7.61746 2.2e-005
                        CHANNELS 6 Xposition Yposition Zposition Zrotation Xrotation Yrotation
                        End Site
                        {
                          OFFSET 0 0 0
                        }
                      }
                      JOINT Bip01_Head_Muzzle
                      {
                        OFFSET 2.88628 13.9448 3.88994
                        CHANNELS 6 Xposition Yposition Zposition Zrotation Xrotation Yrotation
                        End Site
                        {
                          OFFSET 0 0 0
                        }
                      }
                      JOINT Bip01_Head1_Jaw
                      {
                        OFFSET 0.271065 1.32405 0
                        CHANNELS 6 Xposition Yposition Zposition Zrotation Xrotation Yrotation
                        JOINT _Bip01_Head11_TungeControler
                        {
                          OFFSET 4.61616 5.82872 0
                          CHANNELS 6 Xposition Yposition Zposition Zrotation Xrotation Yrotation
                          JOINT _Bip01_Ponytail3_tunge
                          {
                            OFFSET 5.17785 2.98805 0
                            CHANNELS 6 Xposition Yposition Zposition Zrotation Xrotation Yrotation
                            JOINT Bip01_Ponytail31
                            {
                              OFFSET 5.57569 0 0
                              CHANNELS 6 Xposition Yposition Zposition Zrotation Xrotation Yrotation
                              JOINT Bip01_Ponytail32
                              {
                                OFFSET 2.93165 0 0
                                CHANNELS 6 Xposition Yposition Zposition Zrotation Xrotation Yrotation
                                JOINT Bip01_Ponytail3Nub
                                {
                                  OFFSET 3.30155 0 0
                                  CHANNELS 6 Xposition Yposition Zposition Zrotation Xrotation Yrotation
                                  End Site
                                  {
                                    OFFSET 0 0 0
                                  }
                                }
                              }
                            }
                          }
                        }
                        JOINT Bip01_Head_JawNub
                        {
                          OFFSET 15.5776 -0.000389099 0
                          CHANNELS 6 Xposition Yposition Zposition Zrotation Xrotation Yrotation
                          End Site
                          {
                            OFFSET 0 0 0
                          }
                        }
                      }
                      JOINT Bip01_Ponytail2
                      {
                        OFFSET 9.40334 1.03973 -6.51764
                        CHANNELS 6 Xposition Yposition Zposition Zrotation Xrotation Yrotation
                        JOINT Bip01_Ponytail21
                        {
                          OFFSET 2.77018 -0.00640106 1.33514e-005
                          CHANNELS 6 Xposition Yposition Zposition Zrotation Xrotation Yrotation
                          End Site
                          {
                            OFFSET 0 0 0
                          }
                        }
                      }
                      JOINT Bip01_Ponytail1
                      {
                        OFFSET 9.40368 1.03969 6.51768
                        CHANNELS 6 Xposition Yposition Zposition Zrotation Xrotation Yrotation
                        JOINT Bip01_Ponytail11
                        {
                          OFFSET 2.77018 -0.00640487 0
                          CHANNELS 6 Xposition Yposition Zposition Zrotation Xrotation Yrotation
                          End Site
                          {
                            OFFSET 0 0 0
                          }
                        }
                      }
                    }
                  }
                }
              }
            }
          }
        }
      }
    }
  }
}
MOTION
Frames:	4
Frame Time:	0.0333333
0 0 21.2911 -0 -90 -0 1.00108 -28.7007 47.1499 89.807 -1.98973 84.4585 0 0 0 -90.0007 0.000535305 -78.4994 -6.34538 -3.85972 -1.29111 145.008 -6.66274 -2.10097 10.3821 -0.008033 5.00002e-005 -7.66482 0.00537171 6.50131 10.3832 -0.008121 0.000123 -1.11741 0.00669533 6.00028 10.3867 -0.007354 0.000104 25.2053 0.0368385 9.1573 10.3865 -0.00745 -0.000469 23.7244 4.08806 3.7289 8.79606e-006 -1.06166e-005 -8.75617 -84.0245 9.93125 -173.745 19.7638 -3e-006 1e-006 -64.9557 0.00062634 0.00281984 18.6534 7.10543e-015 5.32907e-015 -34.2474 3.99163 3.89489 5.09143 13.9567 -1.67309e-007 111.546 1.08205 -4.88328 4.288 -1.42108e-014 7.10543e-015 68.7873 0.00137929 0.000255389 3.85799 -1.77636e-015 -3.55271e-015 -40.7903 0.00105955 0.00232478 -1.47961e-005 6.61658e-006 8.75617 -126.954 10.714 -175.594 19.7638 -3.55271e-015 0 -79.1081 1.30505e-005 0.000142913 18.6534 3e-006 1e-006 -12.5753 -6.89289 -1.663 5.09143 13.9567 -1.21812e-006 100.039 -0.90986 4.91658 4.288 3.55271e-015 1.77636e-015 51.4987 0.00227299 0.000790598 3.85799 -1.24345e-014 -3.55271e-015 -44.9999 0.000497537 0.00120565 8.96494 -0.00639708 1.82394 2.54246 -0.132407 -2.99593 8.04383 -0.006286 9.89998e-005 2.47714 -0.352727 -7.9923 8.04375 -0.006286 -1.90028e-005 0.982436 0.193975 -4.49557 8.04393 -0.008232 0.000124999 2.6556 -0.720159 -5.45218 10.6688 1.06806 4.50386e-005 -10.4616 -0.408672 4.44764 -2.73922 -4.66756 -9.32201 -127.92 -83.3203 170.827 19.0492 1.56319e-013 7e-006 89.088 -5.60129 -112.447 10.3706 -3.55271e-015 -4.44089e-015 -52.8457 0.000300442 0.000898716 22.8631 -3e-006 7.72716e-014 -16.9359 5.11265 2.1403 6.48256 0.103655 0.504495 -87.0275 2.11027 -15.3582 3.66844 2e-006 4.44534e-013 40.1089 0.00131959 0.00059968 -4.14233 -4.79652 8.71897 143.743 83.8995 -78.1327 19.0492 -1e-006 -3e-006 76.2915 -7.99956 89.263 10.3706 0 8.88179e-016 -104.671 -0.000162101 0.00134066 22.8631 1e-006 -2.93099e-014 20.2337 -21.2176 -13.2817 6.48256 0.103649 -0.504496 55.2458 11.1644 -10.8202 3.66844 -1e-006 7.72716e-014 25.6079 8.78263e-006 -2.38948e-006 7.52728 -0.006649 -0.00033 9.74725 2.81455 10.1574 8.47684 -0.006462 0.000192002 15.3847 -1.64916 -4.81797 8.41605 3e-006 1.73195e-014 -92.0978 -0.600194 -2.57645 -3e-006 3e-006 -3e-006 -23.1098 1.37701e-015 90 -3.16492e-007 -0.500004 1.42882e-006 -109.478 90 -160.522 0 0 0 -113.549 -7.01671e-015 -180 2.8863 13.9448 3.88994 -22.989 1.37021e-015 90 0 0 0 -85.3358 -7.01671e-015 -180 0 0 0 -120.289 -3.92587e-007 -1.96789e-005 0 0 0 133.74 -2.00463e-005 4.5336e-006 0 0 0 1.83152 1.89586e-007 -1.39252e-008 0 0 0 -17.65 -1.1166e-007 7.45543e-008 0 0 0 -26.1943 5.28653e-008 1.52719e-007 15.5776 -0.0004 -7e-006 3.18055e-015 1.2424e-016 -1.98785e-016 9.40381 1.03965 -6.51623 -5.81608 -20.0448 20.1773 2.76858 -0.006114 -0.001365 -12.2016 12.3265 -1.9868 9.40415 1.03961 6.51626 -5.81621 20.0448 -20.1772 2.76858 -0.006116 0.001365 -12.2016 -12.3265 1.98687 
0 0 21.2911 -0 -90 -0 0.840484 -28.7007 47.2433 89.8689 -1.4196 85.0178 0 0 0 -90.0005 0.000427015 -78.9057 -6.35425 -3.85972 -1.24609 143.776 -6.60053 -2.56223 10.3821 -0.008033 5.00002e-005 -8.6707 -0.112118 4.60099 10.3832 -0.008121 0.000123 1.71007 0.417417 4.57095 10.3867 -0.007354 0.000104 27.2417 -0.238323 8.92557 10.3865 -0.00745 -0.000469 25.3144 2.77742 3.89185 8.8029e-006 -1.06297e-005 -8.75617 -85.9414 9.37069 -173.564 19.7638 -3e-006 1e-006 -66.0515 0.000597253 0.00282021 18.6534 7.10543e-015 8.88179e-015 -29.8586 5.18995 3.54777 5.09143 13.9567 -1.19394e-007 112.246 1.05171 -4.87822 4.288 -2.84217e-014 3.55271e-015 67.831 0.00138685 0.000278109 3.85799 3.55271e-015 -3.55271e-015 -40.3282 0.00106921 0.00230841 -1.48029e-005 6.62972e-006 8.75617 -128.057 10.6542 -176.378 19.7638 -3.55271e-015 -5.32907e-015 -78.6763 1.38934e-005 0.000142828 18.6534 3e-006 1e-006 -10.5187 -7.1856 -1.26724 5.09143 13.9567 -1.23288e-006 97.5598 -1.14462 4.8502 4.288 -1.06581e-014 -3.55271e-015 47.7449 0.00222766 0.000936671 3.85799 4.44089e-015 -1.77636e-015 -43.9042 0.000511654 0.00118818 8.97756 -0.00639707 1.76047 2.5427 -0.126078 -2.85351 8.04383 -0.006286 9.89998e-005 2.26483 -0.312913 -7.74603 8.04375 -0.006286 -1.90002e-005 1.57305 0.151343 -4.35665 8.04393 -0.008232 0.000125 1.86815 -0.626748 -5.29143 10.6688 1.06806 4.5033e-005 -10.4644 -0.279575 3.53629 -2.88876 -4.68795 -9.26607 -134.188 -83.9286 164.284 19.0492 1.35003e-013 7e-006 88.0071 -7.67632 -111.843 10.3706 1.77636e-014 -2.66454e-015 -60.5553 0.000231038 0.000899597 22.8631 -3e-006 6.39489e-014 -15.8746 5.74695 2.63615 6.48256 0.103655 0.504495 -83.5047 1.13698 -15.4578 3.66844 2e-006 4.27658e-013 39.5642 0.00131353 0.000612593 -4.00334 -4.7758 8.79445 150.712 84.4966 -81.7533 19.0492 -1e-006 -3e-006 76.818 7.5731 91.8498 10.3706 0 2.66454e-015 -110.213 -0.000239402 0.00133677 22.8631 1e-006 -2.4869e-014 15.0915 -18.3454 -10.2326 6.48256 0.103649 -0.504496 40.4221 13.4532 -7.56893 3.66844 -1e-006 7.37188e-014 26.2276 9.00299e-006 -2.66666e-006 7.52728 -0.006649 -0.00033 9.73068 2.82752 10.2465 8.47684 -0.006462 0.000192002 15.4557 -1.63263 -4.73524 8.41605 3e-006 7.63834e-014 -91.7722 -1.06637 -2.48852 -3e-006 3e-006 -3e-006 -23.1098 1.37701e-015 90 -3.17013e-007 -0.500004 1.43038e-006 -108.275 90 -161.725 0 0 0 -113.249 -7.01671e-015 -180 2.90424 13.9397 3.88994 -22.989 1.37021e-015 90 0 0 0 -85.2733 -7.01671e-015 -180 0 0 0 -120.152 -7.19021e-007 -1.94407e-005 0 0 0 133.652 -2.10839e-005 4.40163e-006 0 0 0 1.75652 -2.3294e-007 -4.19644e-008 0 0 0 -17.8 9.37951e-007 4.89524e-007 0 0 0 -26.1943 1.64094e-007 2.58994e-007 15.5776 -0.0004 -7.00001e-006 3.18055e-015 -3.85145e-016 2.48481e-017 9.40381 1.03965 -6.51623 -5.89264 -20.1255 19.9544 2.76858 -0.006114 -0.001365 -12.2016 12.3265 -1.9868 9.40415 1.03961 6.51626 -5.89274 20.1255 -19.9544 2.76858 -0.006116 0.001365 -12.2016 -12.3265 1.98687 
0 0 21.2911 -0 -90 -0 0.679318 -28.7007 47.3349 89.9257 -0.839816 85.5724 0 0 0 -90.0001 3.76921e-005 -79.3017 -6.36253 -3.85972 -1.20214 142.417 -6.54077 -3.18035 10.3821 -0.008033 5.00002e-005 -9.78876 -0.20513 2.54409 10.3832 -0.008121 0.000123 4.8524 0.795364 3.05151 10.3867 -0.007354 0.000104 29.49 -0.56345 8.84953 10.3865 -0.00745 -0.000469 27.0725 1.21076 4.22932 8.8096e-006 -1.06462e-005 -8.75617 -88.5332 8.80452 -173.443 19.7638 -3e-006 1e-006 -67.4731 0.000559332 0.00282077 18.6534 1.42109e-014 5.32907e-015 -26.8552 6.03621 3.29329 5.09143 13.9567 1.08765e-007 113.847 0.983149 -4.86656 4.288 0 3.55271e-015 65.6437 0.00138775 0.00032986 3.85799 -2.22044e-016 -1.77636e-015 -39.2721 0.00110198 0.00228041 -1.48096e-005 6.64623e-006 8.75617 -129.6 10.6959 -177.212 19.7638 7.10543e-015 3.10862e-015 -78.5987 1.4208e-005 0.00014275 18.6534 3e-006 1e-006 -6.96037 -7.88208 -0.447743 5.09143 13.9567 -1.25454e-006 92.9508 -1.5719 4.69652 4.288 7.10542e-015 3.55271e-015 40.7673 0.00212678 0.00119693 3.85799 -7.54951e-015 -3.55271e-015 -41.8552 0.000530969 0.00114987 8.98944 -0.00639707 1.69841 2.54308 -0.119892 -2.71412 8.04383 -0.006286 9.89998e-005 2.05681 -0.275735 -7.50581 8.04375 -0.006286 -1.89941e-005 2.1765 0.110475 -4.22155 8.04393 -0.008232 0.000125 1.07213 -0.535329 -5.13487 10.6688 1.06806 4.50273e-005 -10.4658 -0.14943 2.62963 -3.03921 -4.70862 -9.20705 -141.848 -84.4508 156.358 19.0492 9.05942e-014 7e-006 87.4589 -8.81248 -111.159 10.3706 -1.06581e-014 -7.99361e-015 -66.9566 0.000176469 0.000899297 22.8631 -3e-006 4.9738e-014 -15.0306 6.30539 3.1046 6.48255 0.103655 0.504495 -79.9518 0.151999 -15.4977 3.66844 2e-006 4.03233e-013 39.0192 0.0013073 0.000625428 -3.86152 -4.75435 8.86888 159.277 85.0047 -86.9526 19.0492 -1e-006 -3e-006 76.3201 23.2157 95.8075 10.3706 -1.42109e-014 4.44089e-015 -116.046 -0.000288693 0.0013189 22.8631 1e-006 -4.44089e-014 9.89943 -15.6834 -6.95095 6.48256 0.103649 -0.504496 25.3825 14.8718 -3.83933 3.66844 -1e-006 6.83898e-014 26.8778 8.84906e-006 -2.81195e-006 7.52728 -0.006649 -0.00033 9.71316 2.84235 10.3471 8.47684 -0.006462 0.000192002 15.5273 -1.61285 -4.6415 8.41605 3e-006 1.34559e-013 -91.4547 -1.52421 -2.39079 -3e-006 3e-006 -3e-006 -23.1098 1.37701e-015 90 -3.17564e-007 -0.500004 1.43192e-006 -107.075 90 -162.925 0 0 0 -112.949 -7.01671e-015 -180 2.92218 13.9345 3.88994 -22.989 1.37021e-015 90 0 0 0 -85.2108 -7.01671e-015 -180 0 0 0 -120.014 -1.02912e-006 -1.9231e-005 0 0 0 133.565 -2.18734e-005 4.26805e-006 0 0 0 1.6815 -4.31198e-007 -6.02543e-008 0 0 0 -17.9501 1.56564e-006 7.65454e-007 0 0 0 -26.1943 2.50632e-007 3.51894e-007 15.5776 -0.0004 -7.00001e-006 -6.36111e-015 1.2424e-016 1.36664e-016 9.40381 1.03965 -6.51623 -5.968 -20.2043 19.7357 2.76858 -0.006114 -0.001365 -12.2016 12.3265 -1.9868 9.40415 1.03961 6.51626 -5.96814 20.2043 -19.7355 2.76858 -0.006116 0.001365 -12.2016 -12.3265 1.98686 
0 0 21.2911 -0 -90 -0 0.527842 -28.7007 47.4552 89.9711 -0.338729 86.2588 0 0 0 -89.9998 -0.000174005 -79.8326 -6.37313 -3.85972 -1.14303 140.96 -6.38117 -3.98715 10.3821 -0.008033 5.00002e-005 -10.982 -0.262815 0.377437 10.3832 -0.008121 0.000123 8.20605 1.11338 1.45489 10.3867 -0.007354 0.000104 31.8793 -0.917286 8.85943 10.3865 -0.00745 -0.000469 28.9521 -0.499913 4.69206 8.81864e-006 -1.06723e-005 -8.75617 -91.7484 8.03777 -173.318 19.7638 -3e-006 1e-006 -68.9157 0.000521086 0.00282124 18.6534 0 -1.77636e-015 -25.1087 6.59797 3.07348 5.09143 13.9567 3.82731e-007 116.216 0.881904 -4.84587 4.288 2.84217e-014 -7.10543e-015 62.4098 0.00137378 0.000405523 3.85799 -2.0206e-014 7.10543e-015 -37.7099 0.00115847 0.00224541 -1.48186e-005 6.67227e-006 8.75617 -131.298 10.5349 -177.907 19.7638 1.77636e-014 -3.9968e-015 -78.7805 1.36861e-005 0.00014278 18.6534 3e-006 1e-006 -4.1604 -8.21127 0.168251 5.09143 13.9567 -1.26465e-006 88.8665 -1.94236 4.54081 4.288 1.42108e-014 1.77636e-015 34.5872 0.00197515 0.00141272 3.85799 -1.28786e-014 5.32907e-015 -40.0494 0.000574573 0.0011397 9.00463 -0.00639706 1.61496 2.54407 -0.111384 -2.522 8.04383 -0.006286 9.89999e-005 1.74347 -0.22456 -7.18814 8.04375 -0.006286 -1.89928e-005 2.61058 0.0866025 -4.04241 8.04393 -0.008232 0.000125 0.348257 -0.449289 -4.92323 10.6688 1.06806 4.50199e-005 -10.4658 -0.015875 1.7064 -3.19213 -4.72971 -9.14418 -151.119 -84.8621 146.806 19.0492 6.21725e-014 7e-006 87.2817 -8.68335 -110.527 10.3706 0 4.44089e-015 -71.7689 0.000137605 0.000898915 22.8631 -3e-006 4.88498e-014 -14.4872 6.65948 3.63602 6.48256 0.103655 0.504495 -76.3846 -0.836515 -15.4764 3.66844 2e-006 3.79252e-013 38.4674 0.00130076 0.000638433 -3.7154 -4.73213 8.94283 169.699 85.3915 -94.3055 19.0492 -1e-006 -3e-006 75.0951 35.6124 98.8493 10.3706 1.42109e-014 2.66454e-015 -118.873 -0.000335957 0.00132867 22.8631 1e-006 -4.44089e-014 4.33169 -13.7533 -3.97921 6.48256 0.103649 -0.504496 10.0374 15.3341 0.185553 3.66844 -1e-006 6.12843e-014 27.257 8.66644e-006 -2.86113e-006 7.52728 -0.006649 -0.00033 9.69509 2.85858 10.4564 8.47684 -0.006462 0.000192002 15.6007 -1.59069 -4.53955 8.41605 3e-006 1.81633e-013 -90.9287 -1.89627 -2.2836 -3e-006 3e-006 -3e-006 -23.1098 1.37701e-015 90 -3.18176e-007 -0.500004 1.4343e-006 -105.184 90 -164.816 0 0 0 -112.649 -1.52588e-005 -180 2.94012 13.9294 3.88994 -22.989 1.37021e-015 90 0 0 0 -85.1482 -3.24611e-014 -180 0 0 0 -119.877 -1.34923e-006 -1.90317e-005 0 0 0 133.477 -2.25153e-005 4.12158e-006 0 0 0 1.60648 -5.06745e-007 -7.2292e-008 0 0 0 -18.1001 1.93447e-006 9.58256e-007 0 0 0 -26.1943 3.20298e-007 4.40224e-007 15.5776 -0.0004 -7.00001e-006 6.36111e-015 -2.79541e-017 1.2424e-017 9.40381 1.03965 -6.51623 -5.81608 -20.0448 20.1773 2.76858 -0.006114 -0.001365 -12.2016 12.3265 -1.9868 9.40415 1.03961 6.51626 -5.81621 20.0448 -20.1772 2.76858 -0.006116 0.001365 -12.2016 -12.3265 1.98686 
